<svg width="1284" height="313" viewBox="0 0 1284 313" fill="none" xmlns="http://www.w3.org/2000/svg">
<g opacity="0.1">
<path d="M576.149 1.60327L321.859 311.395" stroke="#C09770" stroke-width="2.5" stroke-linecap="round" stroke-linejoin="round"/>
<path d="M378.936 1.60449L2 116.556" stroke="#C09770" stroke-width="2.5" stroke-linecap="round" stroke-linejoin="round"/>
<path d="M313.198 1.60449L2 77.535" stroke="#C09770" stroke-width="2.5" stroke-linecap="round" stroke-linejoin="round"/>
<path d="M247.467 1.60449L2 51.517" stroke="#C09770" stroke-width="2.5" stroke-linecap="round" stroke-linejoin="round"/>
<path d="M444.677 1.60449L2 181.578" stroke="#C09770" stroke-width="2.5" stroke-linecap="round" stroke-linejoin="round"/>
<path d="M181.728 1.60449L2 32.93" stroke="#C09770" stroke-width="2.5" stroke-linecap="round" stroke-linejoin="round"/>
<path d="M50.2506 1.60449L2 8.14643" stroke="#C09770" stroke-width="2.5" stroke-linecap="round" stroke-linejoin="round"/>
<path d="M115.989 1.60449L2 18.9885" stroke="#C09770" stroke-width="2.5" stroke-linecap="round" stroke-linejoin="round"/>
<path d="M1102.05 1.60327L1282 32.9855" stroke="#C09770" stroke-width="2.5" stroke-linecap="round" stroke-linejoin="round"/>
<path d="M641.887 1.60327L641.447 311.395" stroke="#C09770" stroke-width="2.5" stroke-linecap="round" stroke-linejoin="round"/>
<path d="M1167.79 1.60327L1282 19.0283" stroke="#C09770" stroke-width="2.5" stroke-linecap="round" stroke-linejoin="round"/>
<path d="M1233.52 1.60327L1282 8.17783" stroke="#C09770" stroke-width="2.5" stroke-linecap="round" stroke-linejoin="round"/>
<path d="M1036.31 1.60327L1282 51.5919" stroke="#C09770" stroke-width="2.5" stroke-linecap="round" stroke-linejoin="round"/>
<path d="M970.57 1.60327L1282 77.6389" stroke="#C09770" stroke-width="2.5" stroke-linecap="round" stroke-linejoin="round"/>
<path d="M839.098 1.60327L1282 181.876" stroke="#C09770" stroke-width="2.5" stroke-linecap="round" stroke-linejoin="round"/>
<path d="M904.836 1.60327L1282 116.724" stroke="#C09770" stroke-width="2.5" stroke-linecap="round" stroke-linejoin="round"/>
<path d="M707.625 1.60327L961.038 311.395" stroke="#C09770" stroke-width="2.5" stroke-linecap="round" stroke-linejoin="round"/>
<path d="M510.41 1.60327L2.27344 311.395" stroke="#C09770" stroke-width="2.5" stroke-linecap="round" stroke-linejoin="round"/>
<path d="M773.359 1.60327L1280.63 311.395" stroke="#C09770" stroke-width="2.5" stroke-linecap="round" stroke-linejoin="round"/>
<path d="M1280.62 311.396H2.27344" stroke="#C09770" stroke-width="2.5" stroke-linecap="round" stroke-linejoin="round"/>
<path d="M1282 43.8832H2" stroke="#C09770" stroke-width="2.5" stroke-linecap="round" stroke-linejoin="round"/>
<path d="M1282 15.5314H2" stroke="#C09770" stroke-width="2.5" stroke-linecap="round" stroke-linejoin="round"/>
<path d="M1282 21.3102H2" stroke="#C09770" stroke-width="2.5" stroke-linecap="round" stroke-linejoin="round"/>
<path d="M1282 27.8503H2" stroke="#C09770" stroke-width="2.5" stroke-linecap="round" stroke-linejoin="round"/>
<path d="M1282 5.76557H2" stroke="#C09770" stroke-width="2.5" stroke-linecap="round" stroke-linejoin="round"/>
<path d="M1282 10.3796H2" stroke="#C09770" stroke-width="2.5" stroke-linecap="round" stroke-linejoin="round"/>
<path d="M1282 229.385H2" stroke="#C09770" stroke-width="2.5" stroke-linecap="round" stroke-linejoin="round"/>
<path d="M1282 53.8554H2" stroke="#C09770" stroke-width="2.5" stroke-linecap="round" stroke-linejoin="round"/>
<path d="M1282 35.3054H2" stroke="#C09770" stroke-width="2.5" stroke-linecap="round" stroke-linejoin="round"/>
<path d="M1282 1.60395H2" stroke="#C09770" stroke-width="2.5" stroke-linecap="round" stroke-linejoin="round"/>
<path d="M1282 65.5925H2" stroke="#C09770" stroke-width="2.5" stroke-linecap="round" stroke-linejoin="round"/>
<path d="M1282 79.6184H2" stroke="#C09770" stroke-width="2.5" stroke-linecap="round" stroke-linejoin="round"/>
<path d="M1282 180.362H2" stroke="#C09770" stroke-width="2.5" stroke-linecap="round" stroke-linejoin="round"/>
<path d="M1282 96.6664H2" stroke="#C09770" stroke-width="2.5" stroke-linecap="round" stroke-linejoin="round"/>
<path d="M1282 117.83H2" stroke="#C09770" stroke-width="2.5" stroke-linecap="round" stroke-linejoin="round"/>
<path d="M1282 144.803H2" stroke="#C09770" stroke-width="2.5" stroke-linecap="round" stroke-linejoin="round"/>
</g>
</svg>
