<svg width="29" height="25" viewBox="0 0 29 25" fill="none" xmlns="http://www.w3.org/2000/svg">
<path d="M24.9324 0.0368652H3.11655C1.40245 0.0368652 0 1.24361 0 2.71853V21.4902C0 22.9664 1.40245 24.1718 3.11655 24.1718H14.0245V14.786H10.9079V11.4675H14.0245V8.71875C14.0245 5.81719 15.9131 3.77913 19.8929 3.77913L22.7025 3.78181V7.27468H20.8372C19.2883 7.27468 18.6993 8.27494 18.6993 9.20279V11.4688H22.7009L21.8158 14.786H18.6993V24.1718H24.9324C26.6465 24.1718 28.0489 22.9664 28.0489 21.4902V2.71853C28.0489 1.24361 26.6465 0.0368652 24.9324 0.0368652Z" fill="#B3B3B3"/>
</svg>
