<svg width="1512" height="431" viewBox="0 0 1512 431" fill="none" xmlns="http://www.w3.org/2000/svg">
<g opacity="0.2">
<path d="M684.902 1.83789L381.561 432.16" stroke="#F8D548" stroke-width="2.5" stroke-linecap="round" stroke-linejoin="round"/>
<path d="M449.649 1.83984L0.000976562 161.515" stroke="#F8D548" stroke-width="2.5" stroke-linecap="round" stroke-linejoin="round"/>
<path d="M371.229 1.83984L0.000976562 107.313" stroke="#F8D548" stroke-width="2.5" stroke-linecap="round" stroke-linejoin="round"/>
<path d="M292.818 1.83984L0 71.1718" stroke="#F8D548" stroke-width="2.5" stroke-linecap="round" stroke-linejoin="round"/>
<path d="M528.07 1.83984L0 251.835" stroke="#F8D548" stroke-width="2.5" stroke-linecap="round" stroke-linejoin="round"/>
<path d="M214.399 1.83984L0 45.3533" stroke="#F8D548" stroke-width="2.5" stroke-linecap="round" stroke-linejoin="round"/>
<path d="M57.5589 1.83984L0 10.9272" stroke="#F8D548" stroke-width="2.5" stroke-linecap="round" stroke-linejoin="round"/>
<path d="M135.979 1.83984L0 25.9875" stroke="#F8D548" stroke-width="2.5" stroke-linecap="round" stroke-linejoin="round"/>
<path d="M1312.25 1.83789L1526.91 45.4302" stroke="#F8D548" stroke-width="2.5" stroke-linecap="round" stroke-linejoin="round"/>
<path d="M763.322 1.83789L762.797 432.16" stroke="#F8D548" stroke-width="2.5" stroke-linecap="round" stroke-linejoin="round"/>
<path d="M1390.67 1.83789L1526.91 26.0426" stroke="#F8D548" stroke-width="2.5" stroke-linecap="round" stroke-linejoin="round"/>
<path d="M1469.08 1.83789L1526.91 10.9705" stroke="#F8D548" stroke-width="2.5" stroke-linecap="round" stroke-linejoin="round"/>
<path d="M1233.83 1.83789L1526.91 71.2755" stroke="#F8D548" stroke-width="2.5" stroke-linecap="round" stroke-linejoin="round"/>
<path d="M1155.41 1.83789L1526.91 107.457" stroke="#F8D548" stroke-width="2.5" stroke-linecap="round" stroke-linejoin="round"/>
<path d="M998.575 1.83789L1526.91 252.25" stroke="#F8D548" stroke-width="2.5" stroke-linecap="round" stroke-linejoin="round"/>
<path d="M1077 1.83789L1526.91 161.748" stroke="#F8D548" stroke-width="2.5" stroke-linecap="round" stroke-linejoin="round"/>
<path d="M841.742 1.83789L1144.04 432.16" stroke="#F8D548" stroke-width="2.5" stroke-linecap="round" stroke-linejoin="round"/>
<path d="M606.481 1.83789L0.324951 432.16" stroke="#F8D548" stroke-width="2.5" stroke-linecap="round" stroke-linejoin="round"/>
<path d="M920.156 1.83789L1525.27 432.16" stroke="#F8D548" stroke-width="2.5" stroke-linecap="round" stroke-linejoin="round"/>
<path d="M1525.27 432.161H0.327637" stroke="#F8D548" stroke-width="2.5" stroke-linecap="round" stroke-linejoin="round"/>
<path d="M1526.91 60.5684H0.000976562" stroke="#F8D548" stroke-width="2.5" stroke-linecap="round" stroke-linejoin="round"/>
<path d="M1526.91 21.1866H0.000976562" stroke="#F8D548" stroke-width="2.5" stroke-linecap="round" stroke-linejoin="round"/>
<path d="M1526.91 29.2129H0.000976562" stroke="#F8D548" stroke-width="2.5" stroke-linecap="round" stroke-linejoin="round"/>
<path d="M1526.91 38.296H0.000976562" stroke="#F8D548" stroke-width="2.5" stroke-linecap="round" stroke-linejoin="round"/>
<path d="M1526.91 7.62017H0.000976562" stroke="#F8D548" stroke-width="2.5" stroke-linecap="round" stroke-linejoin="round"/>
<path d="M1526.91 14.0294H0.000976562" stroke="#F8D548" stroke-width="2.5" stroke-linecap="round" stroke-linejoin="round"/>
<path d="M1526.91 318.242H0.000976562" stroke="#F8D548" stroke-width="2.5" stroke-linecap="round" stroke-linejoin="round"/>
<path d="M1526.91 74.42H0.000976562" stroke="#F8D548" stroke-width="2.5" stroke-linecap="round" stroke-linejoin="round"/>
<path d="M1526.91 48.6534H0.000976562" stroke="#F8D548" stroke-width="2.5" stroke-linecap="round" stroke-linejoin="round"/>
<path d="M1526.91 1.83892H0.000976562" stroke="#F8D548" stroke-width="2.5" stroke-linecap="round" stroke-linejoin="round"/>
<path d="M1526.91 90.7237H0.000976562" stroke="#F8D548" stroke-width="2.5" stroke-linecap="round" stroke-linejoin="round"/>
<path d="M1526.91 110.207H0.000976562" stroke="#F8D548" stroke-width="2.5" stroke-linecap="round" stroke-linejoin="round"/>
<path d="M1526.91 250.146H0.000976562" stroke="#F8D548" stroke-width="2.5" stroke-linecap="round" stroke-linejoin="round"/>
<path d="M1526.91 133.888H0.000976562" stroke="#F8D548" stroke-width="2.5" stroke-linecap="round" stroke-linejoin="round"/>
<path d="M1526.91 163.284H0.000976562" stroke="#F8D548" stroke-width="2.5" stroke-linecap="round" stroke-linejoin="round"/>
<path d="M1526.91 200.753H0.000976562" stroke="#F8D548" stroke-width="2.5" stroke-linecap="round" stroke-linejoin="round"/>
</g>
</svg>
