<svg width="25" height="23" viewBox="0 0 25 23" fill="none" xmlns="http://www.w3.org/2000/svg">
<path d="M12.2661 5.57198C8.80346 5.57198 6.00893 8.08589 6.00893 11.2008C6.00893 14.3158 8.80346 16.8297 12.2661 16.8297C15.7288 16.8297 18.5233 14.3158 18.5233 11.2008C18.5233 8.08589 15.7288 5.57198 12.2661 5.57198ZM12.2661 14.8592C10.0268 14.8592 8.19941 13.2153 8.19941 11.2008C8.19941 9.18641 10.0268 7.54249 12.2661 7.54249C14.5054 7.54249 16.3328 9.18641 16.3328 11.2008C16.3328 13.2153 14.5054 14.8592 12.2661 14.8592ZM18.7796 4.0296C17.9711 4.0296 17.3182 4.61691 17.3182 5.34419C17.3182 6.07147 17.9711 6.65878 18.7796 6.65878C19.588 6.65878 20.2409 6.07421 20.2409 5.34419C20.2412 5.17149 20.2035 5.00045 20.1302 4.84086C20.0568 4.68127 19.9492 4.53626 19.8134 4.41415C19.6777 4.29204 19.5165 4.19521 19.3391 4.12923C19.1617 4.06324 18.9716 4.02938 18.7796 4.0296ZM24.4632 11.2008C24.4632 9.6859 24.4785 8.18469 24.3839 6.6725C24.2893 4.91606 23.8439 3.35721 22.4161 2.07281C20.9853 0.785663 19.2555 0.387718 17.303 0.302641C15.619 0.217563 13.9502 0.231285 12.2692 0.231285C10.5851 0.231285 8.91635 0.217563 7.23535 0.302641C5.28284 0.387718 3.54999 0.788408 2.12221 2.07281C0.691388 3.35995 0.249022 4.91606 0.154447 6.6725C0.0598721 8.18744 0.0751262 9.68865 0.0751262 11.2008C0.0751262 12.713 0.0598721 14.217 0.154447 15.7292C0.249022 17.4856 0.694439 19.0445 2.12221 20.3289C3.55304 21.616 5.28284 22.014 7.23535 22.099C8.9194 22.1841 10.5882 22.1704 12.2692 22.1704C13.9532 22.1704 15.622 22.1841 17.303 22.099C19.2555 22.014 20.9884 21.6133 22.4161 20.3289C23.847 19.0417 24.2893 17.4856 24.3839 15.7292C24.4815 14.217 24.4632 12.7158 24.4632 11.2008ZM21.7785 17.6722C21.5558 18.1717 21.2873 18.545 20.8572 18.9292C20.427 19.3162 20.0152 19.5577 19.4599 19.758C17.8552 20.3316 14.0447 20.2026 12.2661 20.2026C10.4875 20.2026 6.67401 20.3316 5.06929 19.7608C4.51404 19.5604 4.09913 19.3189 3.67202 18.9319C3.24186 18.545 2.97339 18.1745 2.75068 17.675C2.11611 16.2287 2.2595 12.8009 2.2595 11.2008C2.2595 9.60083 2.11611 6.17027 2.75068 4.72669C2.97339 4.2272 3.24186 3.85396 3.67202 3.46973C4.10218 3.08551 4.51404 2.84125 5.06929 2.64091C6.67401 2.07006 10.4875 2.19905 12.2661 2.19905C14.0447 2.19905 17.8582 2.07006 19.463 2.64091C20.0182 2.84125 20.4331 3.08277 20.8602 3.46973C21.2904 3.8567 21.5589 4.2272 21.7816 4.72669C22.4161 6.17027 22.2727 9.60083 22.2727 11.2008C22.2727 12.8009 22.4161 16.2287 21.7785 17.6722Z" fill="#B3B3B3"/>
</svg>
