<svg width="28" height="26" viewBox="0 0 28 26" fill="none" xmlns="http://www.w3.org/2000/svg">
<path d="M6.80844 3.66247C6.80844 5.10851 5.73376 6.35304 3.77966 6.35304C1.94059 6.35304 0.753906 5.17932 0.753906 3.73327C0.753906 2.2491 1.90427 0.939209 3.78117 0.939209C5.65808 0.939209 6.77211 2.17829 6.80844 3.66247ZM0.753906 25.4485V7.74735H6.80844V25.4485H0.753906Z" fill="#B3B3B3"/>
<path d="M9.83603 13.7991C9.83603 11.6953 9.75884 9.93742 9.68164 8.41917H15.1216L15.3911 10.7653H15.5061C16.272 9.66101 18.1489 8.04199 21.2912 8.04199C25.1237 8.04199 27.9996 10.35 27.9996 15.316V25.4495H21.9451V16.1071C21.9451 13.9366 21.0263 12.2808 18.9178 12.2808C17.3104 12.2808 16.5051 13.4519 16.0828 14.4173C15.9284 14.7631 15.8906 15.2452 15.8906 15.7286V25.4495H9.83603V13.7991Z" fill="#B3B3B3"/>
</svg>
