<svg width="28" height="22" viewBox="0 0 28 22" fill="none" xmlns="http://www.w3.org/2000/svg">
<path d="M24.6194 5.41927C24.6311 5.64511 24.6355 5.87374 24.6355 6.09959C24.6355 13.0561 19.099 21.0749 8.97525 21.0749C5.86508 21.0749 2.97363 20.2036 0.537109 18.7091C1.97828 18.8757 3.43967 18.7692 4.83774 18.3955C6.23582 18.0219 7.54317 17.3885 8.68508 16.5315C7.53669 16.5108 6.42379 16.1475 5.50198 15.4923C4.58016 14.8372 3.89551 13.923 3.54375 12.8776C4.36914 13.0252 5.21861 12.9943 6.02985 12.787C4.78405 12.5455 3.6639 11.8996 2.85923 10.9588C2.05457 10.0179 1.61487 8.84005 1.61466 7.62472V7.5592C2.379 7.96571 3.23385 8.19179 4.10804 8.2186C2.94136 7.47497 2.11549 6.33368 1.79899 5.02768C1.48249 3.72167 1.69923 2.34942 2.40496 1.191C3.78695 2.81715 5.51127 4.14717 7.46591 5.09466C9.42056 6.04216 11.5618 6.58594 13.7506 6.69068C13.6559 6.29701 13.6084 5.89431 13.6092 5.49037C13.6092 4.79951 13.7515 4.11542 14.0281 3.47717C14.3046 2.83892 14.71 2.25901 15.221 1.77057C15.732 1.28213 16.3387 0.894714 17.0063 0.630461C17.674 0.366209 18.3895 0.230293 19.1121 0.230476C19.8652 0.229302 20.6104 0.376074 21.3017 0.661689C21.993 0.947304 22.6155 1.36567 23.1307 1.89083C24.363 1.6576 25.5448 1.22579 26.6258 0.61385C26.2147 1.83257 25.3545 2.867 24.2053 3.52471C25.2964 3.40104 26.3619 3.12192 27.3665 2.69662C26.6285 3.75395 25.6981 4.6761 24.6194 5.41927Z" fill="#B3B3B3"/>
</svg>
